<svg xmlns="http://www.w3.org/2000/svg" xmlns:svg="http://www.w3.org/2000/svg" id="svg4136" x="0" y="0" enable-background="new 0 0 38 38" version="1.1" viewBox="0 0 38 38" xml:space="preserve"><metadata id="metadata4146"/><path style="fill:#b90000;fill-opacity:1" id="path4138" fill="#7F7F7F" d="M34 38H4c-2.2 0-4-1.8-4-4V4c0-2.2 1.8-4 4-4h30c2.2 0 4 1.8 4 4v30C38 36.2 36.2 38 34 38z"/><path style="fill:#fff;fill-opacity:1" id="path5280" d="M 12.198924,25.434334 C 8.1930589,20.759968 6.7088174,17.669427 7.0463642,14.705482 7.689447,9.058667 11.895496,6.3735909 15.933506,9.032066 c 2.454736,1.616107 3.678251,1.616107 6.132987,0 4.03801,-2.6584751 8.24406,0.0266 8.887143,5.673416 0.337547,2.963945 -1.146695,6.054486 -5.152561,10.728852 C 22.7064,29.04545 19.645915,32 19,32 18.354084,32 15.293599,29.04545 12.198924,25.434334 Z"/></svg>